<mxfile host="app.diagrams.net" agent="Mozilla/5.0 (Windows NT 10.0; Win64; x64) AppleWebKit/537.36 (KHTML, like Gecko) Chrome/131.0.0.0 Safari/537.36" version="24.9.1">
  <diagram name="Page-1" id="Rk88EJ43HZCY3K24_Sjz">
    <mxGraphModel dx="1195" dy="1743" grid="1" gridSize="10" guides="1" tooltips="1" connect="1" arrows="1" fold="1" page="1" pageScale="1" pageWidth="850" pageHeight="1100" math="0" shadow="0">
      <root>
        <mxCell id="0" />
        <mxCell id="1" parent="0" />
        <mxCell id="YvLoKTP2tIBKR_lVpO8Z-1" value="Game &quot;Guess a number&quot;" style="strokeWidth=1;shadow=0;dashed=0;align=center;html=1;shape=mxgraph.mockup.containers.window;align=left;verticalAlign=top;spacingLeft=8;strokeColor2=#008cff;strokeColor3=#c4c4c4;fontColor=#666666;mainText=;fontSize=17;labelBackgroundColor=none;whiteSpace=wrap;" vertex="1" parent="1">
          <mxGeometry x="160" y="160" width="550" height="430" as="geometry" />
        </mxCell>
        <mxCell id="YvLoKTP2tIBKR_lVpO8Z-2" value="Guess" style="strokeWidth=1;shadow=0;dashed=0;align=center;html=1;shape=mxgraph.mockup.buttons.button;strokeColor=#666666;fontColor=#ffffff;mainText=;buttonStyle=round;fontSize=17;fontStyle=1;fillColor=#008cff;whiteSpace=wrap;" vertex="1" parent="1">
          <mxGeometry x="280" y="310" width="150" height="50" as="geometry" />
        </mxCell>
        <mxCell id="YvLoKTP2tIBKR_lVpO8Z-13" value="59" style="strokeWidth=1;shadow=0;dashed=0;align=center;html=1;shape=mxgraph.mockup.text.textBox;fontColor=#666666;align=left;fontSize=17;spacingLeft=4;spacingTop=-3;whiteSpace=wrap;strokeColor=#666666;mainText=" vertex="1" parent="1">
          <mxGeometry x="330" y="250" width="150" height="30" as="geometry" />
        </mxCell>
        <mxCell id="YvLoKTP2tIBKR_lVpO8Z-14" value="Enter your number (between 1 and 1000):" style="text;html=1;align=center;verticalAlign=middle;whiteSpace=wrap;rounded=0;" vertex="1" parent="1">
          <mxGeometry x="180" y="250" width="130" height="30" as="geometry" />
        </mxCell>
        <mxCell id="YvLoKTP2tIBKR_lVpO8Z-19" value="History" style="swimlane;strokeColor=#999999;swimlaneFillColor=#FFFFFF;fillColor=#ffffff;fontColor=#008CFF;fontStyle=0;childLayout=stackLayout;horizontal=1;startSize=30;horizontalStack=0;resizeParent=1;resizeParentMax=0;resizeLast=0;collapsible=0;marginBottom=0;whiteSpace=wrap;html=1;fontSize=17;" vertex="1" parent="1">
          <mxGeometry x="550" y="210" width="150" height="330" as="geometry" />
        </mxCell>
        <mxCell id="YvLoKTP2tIBKR_lVpO8Z-20" value="128, need a smaller number" style="text;spacing=0;strokeColor=none;align=left;verticalAlign=middle;spacingLeft=7;spacingRight=10;overflow=hidden;points=[[0,0.5],[1,0.5]];portConstraint=eastwest;rotatable=0;whiteSpace=wrap;html=1;fillColor=none;fontColor=#666666;fontSize=10;" vertex="1" parent="YvLoKTP2tIBKR_lVpO8Z-19">
          <mxGeometry y="30" width="150" height="20" as="geometry" />
        </mxCell>
        <mxCell id="YvLoKTP2tIBKR_lVpO8Z-21" value="60, need a larger number" style="text;spacing=0;strokeColor=none;align=left;verticalAlign=middle;spacingLeft=7;spacingRight=10;overflow=hidden;points=[[0,0.5],[1,0.5]];portConstraint=eastwest;rotatable=0;whiteSpace=wrap;html=1;rSize=5;fillColor=none;fontColor=#666666;fontSize=10;" vertex="1" parent="YvLoKTP2tIBKR_lVpO8Z-19">
          <mxGeometry y="50" width="150" height="20" as="geometry" />
        </mxCell>
        <mxCell id="YvLoKTP2tIBKR_lVpO8Z-22" value="80, need a larger number" style="text;spacing=0;strokeColor=none;align=left;verticalAlign=middle;spacingLeft=7;spacingRight=10;overflow=hidden;points=[[0,0.5],[1,0.5]];portConstraint=eastwest;rotatable=0;whiteSpace=wrap;html=1;rSize=5;fillColor=#DDEEFF;fontColor=#666666;fontSize=10;" vertex="1" parent="YvLoKTP2tIBKR_lVpO8Z-19">
          <mxGeometry y="70" width="150" height="20" as="geometry" />
        </mxCell>
        <mxCell id="YvLoKTP2tIBKR_lVpO8Z-23" value="960, need a smaller number" style="text;spacing=0;strokeColor=none;align=left;verticalAlign=middle;spacingLeft=7;spacingRight=10;overflow=hidden;points=[[0,0.5],[1,0.5]];portConstraint=eastwest;rotatable=0;whiteSpace=wrap;html=1;fillColor=none;fontColor=#666666;fontSize=10;" vertex="1" parent="YvLoKTP2tIBKR_lVpO8Z-19">
          <mxGeometry y="90" width="150" height="20" as="geometry" />
        </mxCell>
        <mxCell id="YvLoKTP2tIBKR_lVpO8Z-24" value="" style="text;spacing=0;strokeColor=none;align=left;verticalAlign=middle;spacingLeft=7;spacingRight=10;overflow=hidden;points=[[0,0.5],[1,0.5]];portConstraint=eastwest;rotatable=0;whiteSpace=wrap;html=1;fillColor=none;fontColor=#666666;fontSize=17;" vertex="1" parent="YvLoKTP2tIBKR_lVpO8Z-19">
          <mxGeometry y="110" width="150" height="220" as="geometry" />
        </mxCell>
        <mxCell id="YvLoKTP2tIBKR_lVpO8Z-25" value="Hint" style="swimlane;strokeColor=#999999;swimlaneFillColor=#FFFFFF;fillColor=#ffffff;fontColor=#008CFF;fontStyle=0;childLayout=stackLayout;horizontal=1;startSize=30;horizontalStack=0;resizeParent=1;resizeParentMax=0;resizeLast=0;collapsible=0;marginBottom=0;whiteSpace=wrap;html=1;fontSize=17;" vertex="1" parent="1">
          <mxGeometry x="180" y="410" width="350" height="50" as="geometry" />
        </mxCell>
        <mxCell id="YvLoKTP2tIBKR_lVpO8Z-26" value="The number is divisible by 3" style="text;spacing=0;strokeColor=none;align=left;verticalAlign=middle;spacingLeft=7;spacingRight=10;overflow=hidden;points=[[0,0.5],[1,0.5]];portConstraint=eastwest;rotatable=0;whiteSpace=wrap;html=1;fillColor=none;fontColor=#666666;fontSize=17;" vertex="1" parent="YvLoKTP2tIBKR_lVpO8Z-25">
          <mxGeometry y="30" width="350" height="20" as="geometry" />
        </mxCell>
        <mxCell id="YvLoKTP2tIBKR_lVpO8Z-51" value="" style="endArrow=classic;html=1;rounded=0;" edge="1" parent="YvLoKTP2tIBKR_lVpO8Z-25">
          <mxGeometry width="50" height="50" relative="1" as="geometry">
            <mxPoint x="80" y="90" as="sourcePoint" />
            <mxPoint x="130" y="40" as="targetPoint" />
          </mxGeometry>
        </mxCell>
        <mxCell id="YvLoKTP2tIBKR_lVpO8Z-33" value="Game &quot;Guess a number&quot;, choose settings" style="strokeWidth=1;shadow=0;dashed=0;align=center;html=1;shape=mxgraph.mockup.containers.window;align=left;verticalAlign=top;spacingLeft=8;strokeColor2=#008cff;strokeColor3=#c4c4c4;fontColor=#666666;mainText=;fontSize=17;labelBackgroundColor=none;whiteSpace=wrap;" vertex="1" parent="1">
          <mxGeometry x="160" y="-400" width="550" height="380" as="geometry" />
        </mxCell>
        <mxCell id="YvLoKTP2tIBKR_lVpO8Z-31" value="Show hint" style="strokeWidth=1;shadow=0;dashed=0;align=center;html=1;shape=mxgraph.mockup.buttons.button;strokeColor=#666666;fontColor=#ffffff;mainText=;buttonStyle=round;fontSize=17;fontStyle=1;fillColor=#008cff;whiteSpace=wrap;" vertex="1" parent="1">
          <mxGeometry x="190" y="500" width="150" height="50" as="geometry" />
        </mxCell>
        <mxCell id="YvLoKTP2tIBKR_lVpO8Z-34" value="" style="swimlane;strokeColor=#999999;swimlaneFillColor=#FFFFFF;fillColor=#ffffff;fontColor=#666666;fontStyle=0;childLayout=stackLayout;horizontal=1;startSize=0;horizontalStack=0;resizeParent=1;resizeParentMax=0;resizeLast=0;collapsible=0;marginBottom=0;whiteSpace=wrap;html=1;" vertex="1" parent="1">
          <mxGeometry x="360" y="-290" width="150" height="120" as="geometry" />
        </mxCell>
        <mxCell id="YvLoKTP2tIBKR_lVpO8Z-35" value="20 (Easy)" style="text;strokeColor=none;align=left;verticalAlign=middle;spacingLeft=27;spacingRight=10;overflow=hidden;points=[[0,0.5],[1,0.5]];portConstraint=eastwest;rotatable=0;whiteSpace=wrap;html=1;fillColor=none;fontColor=inherit;fontSize=17;" vertex="1" parent="YvLoKTP2tIBKR_lVpO8Z-34">
          <mxGeometry width="150" height="30" as="geometry" />
        </mxCell>
        <mxCell id="YvLoKTP2tIBKR_lVpO8Z-36" value="" style="shape=ellipse;resizable=0;fillColor=#EEEEEE;strokeColor=#999999;gradientColor=#cccccc;html=1;" vertex="1" parent="YvLoKTP2tIBKR_lVpO8Z-35">
          <mxGeometry y="0.5" width="15" height="15" relative="1" as="geometry">
            <mxPoint x="8" y="-7.5" as="offset" />
          </mxGeometry>
        </mxCell>
        <mxCell id="YvLoKTP2tIBKR_lVpO8Z-37" value="10 (Normal)" style="text;strokeColor=none;align=left;verticalAlign=middle;spacingLeft=27;spacingRight=10;overflow=hidden;points=[[0,0.5],[1,0.5]];portConstraint=eastwest;rotatable=0;whiteSpace=wrap;html=1;rSize=5;fillColor=none;fontColor=inherit;fontSize=17;" vertex="1" parent="YvLoKTP2tIBKR_lVpO8Z-34">
          <mxGeometry y="30" width="150" height="30" as="geometry" />
        </mxCell>
        <mxCell id="YvLoKTP2tIBKR_lVpO8Z-38" value="" style="shape=ellipse;resizable=0;fillColor=#EEEEEE;strokeColor=#999999;gradientColor=#cccccc;html=1;" vertex="1" parent="YvLoKTP2tIBKR_lVpO8Z-37">
          <mxGeometry y="0.5" width="15" height="15" relative="1" as="geometry">
            <mxPoint x="8" y="-7.5" as="offset" />
          </mxGeometry>
        </mxCell>
        <mxCell id="YvLoKTP2tIBKR_lVpO8Z-39" value="8 (Hard)" style="text;strokeColor=none;align=left;verticalAlign=middle;spacingLeft=27;spacingRight=10;overflow=hidden;points=[[0,0.5],[1,0.5]];portConstraint=eastwest;rotatable=0;whiteSpace=wrap;html=1;rSize=5;fillColor=none;fontColor=#008CFF;fontSize=17;" vertex="1" parent="YvLoKTP2tIBKR_lVpO8Z-34">
          <mxGeometry y="60" width="150" height="30" as="geometry" />
        </mxCell>
        <mxCell id="YvLoKTP2tIBKR_lVpO8Z-40" value="" style="shape=ellipse;resizable=0;fillColor=#AAAAAA;gradientColor=#666666;strokeColor=#444444;html=1;" vertex="1" parent="YvLoKTP2tIBKR_lVpO8Z-39">
          <mxGeometry y="0.5" width="15" height="15" relative="1" as="geometry">
            <mxPoint x="8" y="-7.5" as="offset" />
          </mxGeometry>
        </mxCell>
        <mxCell id="YvLoKTP2tIBKR_lVpO8Z-41" value="" style="shape=ellipse;resizable=0;fillColor=#444444;strokeColor=none;html=1;" vertex="1" parent="YvLoKTP2tIBKR_lVpO8Z-40">
          <mxGeometry x="0.2" y="0.2" width="9" height="9" relative="1" as="geometry" />
        </mxCell>
        <mxCell id="YvLoKTP2tIBKR_lVpO8Z-42" value="3 (Insane)" style="text;strokeColor=none;align=left;verticalAlign=middle;spacingLeft=27;spacingRight=10;overflow=hidden;points=[[0,0.5],[1,0.5]];portConstraint=eastwest;rotatable=0;whiteSpace=wrap;html=1;fillColor=none;fontColor=inherit;fontSize=17;" vertex="1" parent="YvLoKTP2tIBKR_lVpO8Z-34">
          <mxGeometry y="90" width="150" height="30" as="geometry" />
        </mxCell>
        <mxCell id="YvLoKTP2tIBKR_lVpO8Z-43" value="" style="shape=ellipse;resizable=0;fillColor=#EEEEEE;strokeColor=#999999;gradientColor=#cccccc;html=1;" vertex="1" parent="YvLoKTP2tIBKR_lVpO8Z-42">
          <mxGeometry y="0.5" width="15" height="15" relative="1" as="geometry">
            <mxPoint x="8" y="-7.5" as="offset" />
          </mxGeometry>
        </mxCell>
        <mxCell id="YvLoKTP2tIBKR_lVpO8Z-44" value="Difficulty level (number of guesses)" style="text;html=1;align=left;verticalAlign=middle;whiteSpace=wrap;rounded=0;" vertex="1" parent="1">
          <mxGeometry x="360" y="-330" width="120" height="30" as="geometry" />
        </mxCell>
        <mxCell id="YvLoKTP2tIBKR_lVpO8Z-45" value="Start Game" style="strokeWidth=1;shadow=0;dashed=0;align=center;html=1;shape=mxgraph.mockup.buttons.button;strokeColor=#666666;fontColor=#ffffff;mainText=;buttonStyle=round;fontSize=17;fontStyle=1;fillColor=#008cff;whiteSpace=wrap;" vertex="1" parent="1">
          <mxGeometry x="230" y="-130" width="150" height="50" as="geometry" />
        </mxCell>
        <mxCell id="YvLoKTP2tIBKR_lVpO8Z-47" value="" style="endArrow=classic;html=1;rounded=0;entryX=0.109;entryY=0;entryDx=0;entryDy=0;entryPerimeter=0;" edge="1" parent="1" source="YvLoKTP2tIBKR_lVpO8Z-45" target="YvLoKTP2tIBKR_lVpO8Z-1">
          <mxGeometry width="50" height="50" relative="1" as="geometry">
            <mxPoint x="380" y="-80" as="sourcePoint" />
            <mxPoint x="430" y="-130" as="targetPoint" />
          </mxGeometry>
        </mxCell>
        <mxCell id="YvLoKTP2tIBKR_lVpO8Z-48" value="Quit" style="strokeWidth=1;shadow=0;dashed=0;align=center;html=1;shape=mxgraph.mockup.buttons.button;strokeColor=#666666;fontColor=#ffffff;mainText=;buttonStyle=round;fontSize=17;fontStyle=1;fillColor=#008cff;whiteSpace=wrap;" vertex="1" parent="1">
          <mxGeometry x="440" y="-130" width="150" height="50" as="geometry" />
        </mxCell>
        <mxCell id="YvLoKTP2tIBKR_lVpO8Z-49" value="End this game" style="strokeWidth=1;shadow=0;dashed=0;align=center;html=1;shape=mxgraph.mockup.buttons.button;strokeColor=#666666;fontColor=#ffffff;mainText=;buttonStyle=round;fontSize=17;fontStyle=1;fillColor=#008cff;whiteSpace=wrap;" vertex="1" parent="1">
          <mxGeometry x="370" y="500" width="150" height="50" as="geometry" />
        </mxCell>
        <mxCell id="YvLoKTP2tIBKR_lVpO8Z-50" value="" style="curved=1;endArrow=classic;html=1;rounded=0;entryX=0.85;entryY=0.999;entryDx=0;entryDy=0;entryPerimeter=0;" edge="1" parent="1" source="YvLoKTP2tIBKR_lVpO8Z-49" target="YvLoKTP2tIBKR_lVpO8Z-33">
          <mxGeometry width="50" height="50" relative="1" as="geometry">
            <mxPoint x="440" y="550" as="sourcePoint" />
            <mxPoint x="490" y="500" as="targetPoint" />
            <Array as="points">
              <mxPoint x="490" y="550" />
              <mxPoint x="740" y="620" />
              <mxPoint x="900" y="280" />
            </Array>
          </mxGeometry>
        </mxCell>
        <mxCell id="YvLoKTP2tIBKR_lVpO8Z-52" value="&lt;b&gt;&lt;font style=&quot;font-size: 21px;&quot;&gt;Score:&lt;/font&gt;&lt;/b&gt;" style="text;html=1;align=center;verticalAlign=middle;whiteSpace=wrap;rounded=0;" vertex="1" parent="1">
          <mxGeometry x="180" y="200" width="60" height="30" as="geometry" />
        </mxCell>
        <mxCell id="YvLoKTP2tIBKR_lVpO8Z-53" value="&lt;b&gt;&lt;font style=&quot;font-size: 21px;&quot;&gt;237&lt;/font&gt;&lt;/b&gt;" style="text;html=1;align=center;verticalAlign=middle;whiteSpace=wrap;rounded=0;" vertex="1" parent="1">
          <mxGeometry x="250" y="200" width="60" height="30" as="geometry" />
        </mxCell>
        <mxCell id="YvLoKTP2tIBKR_lVpO8Z-54" value="You guessed the number correctly. Great job!!!&lt;br&gt;Your score is:&lt;div&gt;&lt;b&gt;&lt;font style=&quot;font-size: 20px;&quot;&gt;237&lt;/font&gt;&lt;/b&gt;&lt;/div&gt;" style="strokeWidth=1;shadow=0;dashed=0;align=center;html=1;shape=mxgraph.mockup.containers.rrect;rSize=0;strokeColor=#666666;fontColor=#666666;fontSize=17;verticalAlign=top;whiteSpace=wrap;fillColor=#ffffff;spacingTop=32;" vertex="1" parent="1">
          <mxGeometry x="110" y="750" width="250" height="160" as="geometry" />
        </mxCell>
        <mxCell id="YvLoKTP2tIBKR_lVpO8Z-55" value="Congratulations" style="strokeWidth=1;shadow=0;dashed=0;align=center;html=1;shape=mxgraph.mockup.containers.rrect;rSize=0;fontSize=17;fontColor=#666666;strokeColor=#666666;align=left;spacingLeft=8;fillColor=#ffffff;resizeWidth=1;whiteSpace=wrap;" vertex="1" parent="YvLoKTP2tIBKR_lVpO8Z-54">
          <mxGeometry width="250" height="30" relative="1" as="geometry" />
        </mxCell>
        <mxCell id="YvLoKTP2tIBKR_lVpO8Z-56" value="" style="shape=ellipse;strokeColor=#008cff;resizable=0;fillColor=none;html=1;" vertex="1" parent="YvLoKTP2tIBKR_lVpO8Z-55">
          <mxGeometry x="1" y="0.5" width="20" height="20" relative="1" as="geometry">
            <mxPoint x="-25" y="-10" as="offset" />
          </mxGeometry>
        </mxCell>
        <mxCell id="YvLoKTP2tIBKR_lVpO8Z-57" value="OK" style="strokeWidth=1;shadow=0;dashed=0;align=center;html=1;shape=mxgraph.mockup.containers.rrect;rSize=0;fontSize=16;fontColor=#666666;strokeColor=#c4c4c4;resizable=0;whiteSpace=wrap;fillColor=#ffffff;" vertex="1" parent="YvLoKTP2tIBKR_lVpO8Z-54">
          <mxGeometry x="0.5" y="1" width="120" height="25" relative="1" as="geometry">
            <mxPoint x="-60" y="-33" as="offset" />
          </mxGeometry>
        </mxCell>
        <mxCell id="YvLoKTP2tIBKR_lVpO8Z-62" value="" style="curved=1;endArrow=classic;html=1;rounded=0;entryX=0.05;entryY=0.988;entryDx=0;entryDy=0;entryPerimeter=0;" edge="1" parent="YvLoKTP2tIBKR_lVpO8Z-54" target="YvLoKTP2tIBKR_lVpO8Z-33">
          <mxGeometry width="50" height="50" relative="1" as="geometry">
            <mxPoint x="110" y="140" as="sourcePoint" />
            <mxPoint x="190" y="90" as="targetPoint" />
            <Array as="points">
              <mxPoint x="120" y="140" />
              <mxPoint x="-80" y="120" />
              <mxPoint x="-70" y="30" />
              <mxPoint x="-110" y="-330" />
            </Array>
          </mxGeometry>
        </mxCell>
        <mxCell id="YvLoKTP2tIBKR_lVpO8Z-58" value="You have used all your attempts. The number was: &lt;font style=&quot;&quot;&gt;&lt;b style=&quot;font-size: 21px;&quot;&gt;37&lt;/b&gt;&lt;br&gt;&lt;font&gt;Play again?&lt;/font&gt;&lt;/font&gt;" style="strokeWidth=1;shadow=0;dashed=0;align=center;html=1;shape=mxgraph.mockup.containers.rrect;rSize=0;strokeColor=#666666;fontColor=#666666;fontSize=17;verticalAlign=top;whiteSpace=wrap;fillColor=#ffffff;spacingTop=32;" vertex="1" parent="1">
          <mxGeometry x="540" y="750" width="250" height="160" as="geometry" />
        </mxCell>
        <mxCell id="YvLoKTP2tIBKR_lVpO8Z-59" value="Sorry" style="strokeWidth=1;shadow=0;dashed=0;align=center;html=1;shape=mxgraph.mockup.containers.rrect;rSize=0;fontSize=17;fontColor=#666666;strokeColor=#666666;align=left;spacingLeft=8;fillColor=#ffffff;resizeWidth=1;whiteSpace=wrap;" vertex="1" parent="YvLoKTP2tIBKR_lVpO8Z-58">
          <mxGeometry width="250" height="30" relative="1" as="geometry" />
        </mxCell>
        <mxCell id="YvLoKTP2tIBKR_lVpO8Z-60" value="" style="shape=ellipse;strokeColor=#008cff;resizable=0;fillColor=none;html=1;" vertex="1" parent="YvLoKTP2tIBKR_lVpO8Z-59">
          <mxGeometry x="1" y="0.5" width="20" height="20" relative="1" as="geometry">
            <mxPoint x="-25" y="-10" as="offset" />
          </mxGeometry>
        </mxCell>
        <mxCell id="YvLoKTP2tIBKR_lVpO8Z-61" value="Yes" style="strokeWidth=1;shadow=0;dashed=0;align=center;html=1;shape=mxgraph.mockup.containers.rrect;rSize=0;fontSize=16;fontColor=#666666;strokeColor=#c4c4c4;resizable=0;whiteSpace=wrap;fillColor=#ffffff;" vertex="1" parent="YvLoKTP2tIBKR_lVpO8Z-58">
          <mxGeometry x="0.5" y="1" width="120" height="25" relative="1" as="geometry">
            <mxPoint x="-115" y="-40" as="offset" />
          </mxGeometry>
        </mxCell>
        <mxCell id="YvLoKTP2tIBKR_lVpO8Z-63" value="No" style="strokeWidth=1;shadow=0;dashed=0;align=center;html=1;shape=mxgraph.mockup.containers.rrect;rSize=0;fontSize=16;fontColor=#666666;strokeColor=#c4c4c4;resizable=0;whiteSpace=wrap;fillColor=#ffffff;" vertex="1" parent="YvLoKTP2tIBKR_lVpO8Z-58">
          <mxGeometry x="129.99999999999977" y="120" width="120" height="25" as="geometry" />
        </mxCell>
        <mxCell id="YvLoKTP2tIBKR_lVpO8Z-64" value="" style="curved=1;endArrow=classic;html=1;rounded=0;" edge="1" parent="YvLoKTP2tIBKR_lVpO8Z-58" target="YvLoKTP2tIBKR_lVpO8Z-33">
          <mxGeometry width="50" height="50" relative="1" as="geometry">
            <mxPoint x="70" y="130" as="sourcePoint" />
            <mxPoint x="120" y="80" as="targetPoint" />
            <Array as="points">
              <mxPoint x="-60" y="80" />
              <mxPoint x="-610" y="-270" />
            </Array>
          </mxGeometry>
        </mxCell>
        <mxCell id="YvLoKTP2tIBKR_lVpO8Z-65" value="* You entered an invalid number" style="text;html=1;align=center;verticalAlign=middle;whiteSpace=wrap;rounded=0;fontColor=#ff0000;" vertex="1" parent="1">
          <mxGeometry x="310" y="220" width="190" height="30" as="geometry" />
        </mxCell>
        <mxCell id="YvLoKTP2tIBKR_lVpO8Z-66" value="" style="curved=1;endArrow=classic;html=1;rounded=0;entryX=1;entryY=0.5;entryDx=0;entryDy=0;" edge="1" parent="1" target="YvLoKTP2tIBKR_lVpO8Z-65">
          <mxGeometry width="50" height="50" relative="1" as="geometry">
            <mxPoint x="420" y="340" as="sourcePoint" />
            <mxPoint x="470" y="290" as="targetPoint" />
            <Array as="points">
              <mxPoint x="470" y="340" />
              <mxPoint x="540" y="310" />
              <mxPoint x="530" y="290" />
              <mxPoint x="530" y="270" />
            </Array>
          </mxGeometry>
        </mxCell>
        <mxCell id="YvLoKTP2tIBKR_lVpO8Z-68" value="" style="curved=1;endArrow=none;html=1;rounded=0;startArrow=classicThin;startFill=1;endFill=0;entryX=0.355;entryY=1.004;entryDx=0;entryDy=0;entryPerimeter=0;exitX=0.367;exitY=0.039;exitDx=0;exitDy=0;exitPerimeter=0;" edge="1" parent="1" source="YvLoKTP2tIBKR_lVpO8Z-55" target="YvLoKTP2tIBKR_lVpO8Z-2">
          <mxGeometry width="50" height="50" relative="1" as="geometry">
            <mxPoint x="240" y="610" as="sourcePoint" />
            <mxPoint x="250" y="330" as="targetPoint" />
            <Array as="points">
              <mxPoint x="250" y="380" />
            </Array>
          </mxGeometry>
        </mxCell>
        <mxCell id="YvLoKTP2tIBKR_lVpO8Z-69" value="" style="curved=1;endArrow=none;html=1;rounded=0;startArrow=classicThin;startFill=1;endFill=0;entryX=0.672;entryY=0.94;entryDx=0;entryDy=0;entryPerimeter=0;exitX=0.37;exitY=-0.072;exitDx=0;exitDy=0;exitPerimeter=0;" edge="1" parent="1" source="YvLoKTP2tIBKR_lVpO8Z-59" target="YvLoKTP2tIBKR_lVpO8Z-2">
          <mxGeometry width="50" height="50" relative="1" as="geometry">
            <mxPoint x="212" y="761" as="sourcePoint" />
            <mxPoint x="343" y="370" as="targetPoint" />
            <Array as="points">
              <mxPoint x="260" y="390" />
            </Array>
          </mxGeometry>
        </mxCell>
      </root>
    </mxGraphModel>
  </diagram>
</mxfile>
